<?xml version="1.0" encoding="UTF-8" standalone="no"?>
<!DOCTYPE svg PUBLIC "-//W3C//DTD SVG 1.1//EN"
 "http://www.w3.org/Graphics/SVG/1.1/DTD/svg11.dtd">
<!-- Generated by graphviz version 2.43.0 (0)
 -->
<!-- Title: process Pages: 1 -->
<svg width="462pt" height="274pt"
 viewBox="0.00 0.00 462.00 274.00" xmlns="http://www.w3.org/2000/svg" xmlns:xlink="http://www.w3.org/1999/xlink">
<g id="graph0" class="graph" transform="scale(1 1) rotate(0) translate(4 270)">
<title>process</title>
<polygon fill="white" stroke="transparent" points="-4,4 -4,-270 458,-270 458,4 -4,4"/>
<g id="clust1" class="cluster">
<title>global</title>
<polygon fill="none" stroke="lightgreen" stroke-dasharray="5,2" points="8,-8 8,-258 446,-258 446,-8 8,-8"/>
<text text-anchor="middle" x="227" y="-242.8" font-family="Times,serif" font-size="14.00">Global Search Scope</text>
</g>
<g id="clust2" class="cluster">
<title>%15</title>
</g>
<!-- exe -->
<g id="node1" class="node">
<title>exe</title>
<ellipse fill="lightgreen" stroke="lightgreen" cx="158" cy="-178" rx="65.79" ry="18"/>
<text text-anchor="middle" x="158" y="-174.3" font-family="bold" font-size="14.00">executable</text>
</g>
<!-- liba -->
<g id="node2" class="node">
<title>liba</title>
<ellipse fill="lightgreen" stroke="lightgreen" cx="58" cy="-106" rx="42.49" ry="18"/>
<text text-anchor="middle" x="58" y="-102.3" font-family="Times,serif" font-size="14.00">libA.so</text>
</g>
<!-- exe&#45;&gt;liba -->
<g id="edge1" class="edge">
<title>exe&#45;&gt;liba</title>
<path fill="none" stroke="green" d="M134.81,-160.76C120.72,-150.91 102.61,-138.23 87.51,-127.66"/>
<polygon fill="green" stroke="green" points="89.22,-124.58 79.02,-121.72 85.21,-130.32 89.22,-124.58"/>
</g>
<!-- libb -->
<g id="node3" class="node">
<title>libb</title>
<ellipse fill="lightgreen" stroke="lightgreen" cx="160" cy="-106" rx="42.49" ry="18"/>
<text text-anchor="middle" x="160" y="-102.3" font-family="Times,serif" font-size="14.00">libB.so</text>
</g>
<!-- exe&#45;&gt;libb -->
<g id="edge2" class="edge">
<title>exe&#45;&gt;libb</title>
<path fill="none" stroke="green" d="M158.49,-159.7C158.71,-151.98 158.98,-142.71 159.23,-134.11"/>
<polygon fill="green" stroke="green" points="162.72,-134.2 159.51,-124.1 155.73,-134 162.72,-134.2"/>
</g>
<!-- libe -->
<g id="node6" class="node">
<title>libe</title>
<ellipse fill="lightgreen" stroke="lightgreen" cx="262" cy="-34" rx="42.49" ry="18"/>
<text text-anchor="middle" x="262" y="-30.3" font-family="Times,serif" font-size="14.00">libE.so</text>
</g>
<!-- exe&#45;&gt;libe -->
<g id="edge3" class="edge">
<title>exe&#45;&gt;libe</title>
<path fill="none" stroke="green" d="M177.94,-160.74C188.87,-151 201.98,-137.85 211,-124 222.44,-106.43 217.8,-98.32 228,-80 231.86,-73.06 236.69,-66 241.49,-59.59"/>
<polygon fill="green" stroke="green" points="244.53,-61.37 247.91,-51.33 239.01,-57.08 244.53,-61.37"/>
</g>
<!-- libc -->
<g id="node4" class="node">
<title>libc</title>
<ellipse fill="lightgreen" stroke="lightgreen" cx="58" cy="-34" rx="42.49" ry="18"/>
<text text-anchor="middle" x="58" y="-30.3" font-family="Times,serif" font-size="14.00">libC.so</text>
</g>
<!-- liba&#45;&gt;libc -->
<g id="edge4" class="edge">
<title>liba&#45;&gt;libc</title>
<path fill="none" stroke="green" d="M58,-87.7C58,-79.98 58,-70.71 58,-62.11"/>
<polygon fill="green" stroke="green" points="61.5,-62.1 58,-52.1 54.5,-62.1 61.5,-62.1"/>
</g>
<!-- libd -->
<g id="node5" class="node">
<title>libd</title>
<ellipse fill="lightgreen" stroke="lightgreen" cx="160" cy="-34" rx="42.49" ry="18"/>
<text text-anchor="middle" x="160" y="-30.3" font-family="Times,serif" font-size="14.00">libD.so</text>
</g>
<!-- liba&#45;&gt;libd -->
<g id="edge5" class="edge">
<title>liba&#45;&gt;libd</title>
<path fill="none" stroke="green" d="M79.63,-90.15C94.34,-80.06 113.98,-66.58 130.17,-55.47"/>
<polygon fill="green" stroke="green" points="132.48,-58.13 138.75,-49.58 128.52,-52.36 132.48,-58.13"/>
</g>
<!-- libb&#45;&gt;libe -->
<g id="edge6" class="edge">
<title>libb&#45;&gt;libe</title>
<path fill="none" stroke="green" d="M181.63,-90.15C196.34,-80.06 215.98,-66.58 232.17,-55.47"/>
<polygon fill="green" stroke="green" points="234.48,-58.13 240.75,-49.58 230.52,-52.36 234.48,-58.13"/>
</g>
<!-- libf -->
<g id="node7" class="node">
<title>libf</title>
<ellipse fill="lightgreen" stroke="lightgreen" cx="335" cy="-178" rx="43.59" ry="18"/>
<text text-anchor="middle" x="335" y="-174.3" font-family="bold" font-size="14.00">libF.so</text>
</g>
<!-- libg -->
<g id="node8" class="node">
<title>libg</title>
<ellipse fill="lightgreen" stroke="lightgreen" cx="282" cy="-106" rx="42.49" ry="18"/>
<text text-anchor="middle" x="282" y="-102.3" font-family="Times,serif" font-size="14.00">libG.so</text>
</g>
<!-- libf&#45;&gt;libg -->
<g id="edge7" class="edge">
<title>libf&#45;&gt;libg</title>
<path fill="none" stroke="green" d="M322.44,-160.41C315.91,-151.78 307.79,-141.06 300.55,-131.5"/>
<polygon fill="green" stroke="green" points="303.3,-129.33 294.47,-123.47 297.72,-133.56 303.3,-129.33"/>
</g>
<!-- libh -->
<g id="node9" class="node">
<title>libh</title>
<ellipse fill="lightgreen" stroke="lightgreen" cx="386" cy="-106" rx="43.59" ry="18"/>
<text text-anchor="middle" x="386" y="-102.3" font-family="Times,serif" font-size="14.00">libH.so</text>
</g>
<!-- libf&#45;&gt;libh -->
<g id="edge8" class="edge">
<title>libf&#45;&gt;libh</title>
<path fill="none" stroke="green" d="M347.09,-160.41C353.31,-151.87 361.03,-141.28 367.94,-131.79"/>
<polygon fill="green" stroke="green" points="370.94,-133.61 374,-123.47 365.28,-129.49 370.94,-133.61"/>
</g>
</g>
</svg>
