<?xml version="1.0" encoding="UTF-8" standalone="no"?>
<!DOCTYPE svg PUBLIC "-//W3C//DTD SVG 1.1//EN"
 "http://www.w3.org/Graphics/SVG/1.1/DTD/svg11.dtd">
<!-- Generated by graphviz version 2.43.0 (0)
 -->
<!-- Title: process Pages: 1 -->
<svg width="328pt" height="243pt"
 viewBox="0.00 0.00 328.00 243.00" xmlns="http://www.w3.org/2000/svg" xmlns:xlink="http://www.w3.org/1999/xlink">
<g id="graph0" class="graph" transform="scale(1 1) rotate(0) translate(4 239)">
<title>process</title>
<polygon fill="white" stroke="transparent" points="-4,4 -4,-239 324,-239 324,4 -4,4"/>
<g id="clust1" class="cluster">
<title>global</title>
<polygon fill="none" stroke="lightgreen" stroke-dasharray="5,2" points="8,-8 8,-227 312,-227 312,-8 8,-8"/>
<text text-anchor="middle" x="160" y="-211.8" font-family="Times,serif" font-size="14.00">Global Search Scope</text>
</g>
<!-- exe -->
<g id="node1" class="node">
<title>exe</title>
<ellipse fill="lightgreen" stroke="lightgreen" cx="219" cy="-178" rx="65.79" ry="18"/>
<text text-anchor="middle" x="219" y="-174.3" font-family="bold" font-size="14.00">executable</text>
</g>
<!-- liba -->
<g id="node2" class="node">
<title>liba</title>
<ellipse fill="lightgreen" stroke="lightgreen" cx="117" cy="-106" rx="42.49" ry="18"/>
<text text-anchor="middle" x="117" y="-102.3" font-family="Times,serif" font-size="14.00">libA.so</text>
</g>
<!-- exe&#45;&gt;liba -->
<g id="edge1" class="edge">
<title>exe&#45;&gt;liba</title>
<path fill="none" stroke="green" d="M195.85,-161.12C181.27,-151.11 162.31,-138.1 146.64,-127.34"/>
<polygon fill="green" stroke="green" points="148.54,-124.4 138.31,-121.63 144.58,-130.17 148.54,-124.4"/>
</g>
<!-- libb -->
<g id="node3" class="node">
<title>libb</title>
<ellipse fill="lightgreen" stroke="lightgreen" cx="219" cy="-106" rx="42.49" ry="18"/>
<text text-anchor="middle" x="219" y="-102.3" font-family="Times,serif" font-size="14.00">libB.so</text>
</g>
<!-- exe&#45;&gt;libb -->
<g id="edge2" class="edge">
<title>exe&#45;&gt;libb</title>
<path fill="none" stroke="green" d="M219,-159.7C219,-151.98 219,-142.71 219,-134.11"/>
<polygon fill="green" stroke="green" points="222.5,-134.1 219,-124.1 215.5,-134.1 222.5,-134.1"/>
</g>
<!-- libe -->
<g id="node6" class="node">
<title>libe</title>
<ellipse fill="lightgreen" stroke="lightgreen" cx="262" cy="-34" rx="42.49" ry="18"/>
<text text-anchor="middle" x="262" y="-30.3" font-family="Times,serif" font-size="14.00">libE.so</text>
</g>
<!-- exe&#45;&gt;libe -->
<g id="edge3" class="edge">
<title>exe&#45;&gt;libe</title>
<path fill="none" stroke="green" d="M240.97,-160.97C251.93,-151.58 264.08,-138.69 270,-124 277.99,-104.18 275.06,-79.93 270.66,-61.74"/>
<polygon fill="green" stroke="green" points="274.03,-60.82 268.04,-52.08 267.28,-62.65 274.03,-60.82"/>
</g>
<!-- libc -->
<g id="node4" class="node">
<title>libc</title>
<ellipse fill="lightgreen" stroke="lightgreen" cx="58" cy="-34" rx="42.49" ry="18"/>
<text text-anchor="middle" x="58" y="-30.3" font-family="Times,serif" font-size="14.00">libC.so</text>
</g>
<!-- liba&#45;&gt;libc -->
<g id="edge4" class="edge">
<title>liba&#45;&gt;libc</title>
<path fill="none" stroke="green" d="M103.32,-88.76C95.87,-79.93 86.51,-68.83 78.24,-59.01"/>
<polygon fill="green" stroke="green" points="80.73,-56.54 71.61,-51.15 75.38,-61.05 80.73,-56.54"/>
</g>
<!-- libd -->
<g id="node5" class="node">
<title>libd</title>
<ellipse fill="lightgreen" stroke="lightgreen" cx="160" cy="-34" rx="42.49" ry="18"/>
<text text-anchor="middle" x="160" y="-30.3" font-family="Times,serif" font-size="14.00">libD.so</text>
</g>
<!-- liba&#45;&gt;libd -->
<g id="edge5" class="edge">
<title>liba&#45;&gt;libd</title>
<path fill="none" stroke="green" d="M127.19,-88.41C132.31,-80.08 138.62,-69.8 144.34,-60.49"/>
<polygon fill="green" stroke="green" points="147.33,-62.31 149.58,-51.96 141.37,-58.65 147.33,-62.31"/>
</g>
<!-- libb&#45;&gt;libe -->
<g id="edge6" class="edge">
<title>libb&#45;&gt;libe</title>
<path fill="none" stroke="green" d="M229.19,-88.41C234.31,-80.08 240.62,-69.8 246.34,-60.49"/>
<polygon fill="green" stroke="green" points="249.33,-62.31 251.58,-51.96 243.37,-58.65 249.33,-62.31"/>
</g>
</g>
</svg>
