<?xml version="1.0" encoding="UTF-8" standalone="no"?>
<!DOCTYPE svg PUBLIC "-//W3C//DTD SVG 1.1//EN"
 "http://www.w3.org/Graphics/SVG/1.1/DTD/svg11.dtd">
<!-- Generated by graphviz version 2.43.0 (0)
 -->
<!-- Title: process Pages: 1 -->
<svg width="781pt" height="285pt"
 viewBox="0.00 0.00 781.00 285.00" xmlns="http://www.w3.org/2000/svg" xmlns:xlink="http://www.w3.org/1999/xlink">
<g id="graph0" class="graph" transform="scale(1 1) rotate(0) translate(4 281)">
<title>process</title>
<polygon fill="white" stroke="transparent" points="-4,4 -4,-281 777,-281 777,4 -4,4"/>
<g id="clust1" class="cluster">
<title>global</title>
<polygon fill="none" stroke="lightgreen" stroke-dasharray="5,2" points="8,-8 8,-269 618,-269 618,-8 8,-8"/>
<text text-anchor="middle" x="313" y="-253.8" font-family="Times,serif" font-size="14.00">Global Search Scope</text>
</g>
<g id="clust2" class="cluster">
<title>%15</title>
</g>
<g id="clust3" class="cluster">
<title>%21</title>
</g>
<g id="clust4" class="cluster">
<title>scope_1</title>
<polygon fill="none" stroke="lightgray" stroke-dasharray="5,2" points="626,-16 626,-238 765,-238 765,-16 626,-16"/>
<text text-anchor="middle" x="695.5" y="-222.8" font-family="Times,serif" font-size="14.00">Search Scope #1</text>
</g>
<!-- exe -->
<g id="node1" class="node">
<title>exe</title>
<ellipse fill="lightgreen" stroke="lightgreen" cx="119" cy="-189" rx="65.79" ry="18"/>
<text text-anchor="middle" x="119" y="-185.3" font-family="bold" font-size="14.00">executable</text>
</g>
<!-- liba -->
<g id="node2" class="node">
<title>liba</title>
<ellipse fill="lightgreen" stroke="lightgreen" cx="180" cy="-114" rx="42.49" ry="18"/>
<text text-anchor="middle" x="180" y="-110.3" font-family="Times,serif" font-size="14.00">libA.so</text>
</g>
<!-- exe&#45;&gt;liba -->
<g id="edge1" class="edge">
<title>exe&#45;&gt;liba</title>
<path fill="none" stroke="green" d="M133.15,-171.07C141.17,-161.47 151.33,-149.31 160.14,-138.76"/>
<polygon fill="green" stroke="green" points="162.83,-141.01 166.56,-131.09 157.46,-136.52 162.83,-141.01"/>
</g>
<!-- libb -->
<g id="node3" class="node">
<title>libb</title>
<ellipse fill="lightgreen" stroke="lightgreen" cx="58" cy="-114" rx="42.49" ry="18"/>
<text text-anchor="middle" x="58" y="-110.3" font-family="Times,serif" font-size="14.00">libB.so</text>
</g>
<!-- exe&#45;&gt;libb -->
<g id="edge2" class="edge">
<title>exe&#45;&gt;libb</title>
<path fill="none" stroke="green" d="M104.85,-171.07C96.83,-161.47 86.67,-149.31 77.86,-138.76"/>
<polygon fill="green" stroke="green" points="80.54,-136.52 71.44,-131.09 75.17,-141.01 80.54,-136.52"/>
</g>
<!-- libe -->
<g id="node6" class="node">
<title>libe</title>
<ellipse fill="lightgreen" stroke="lightgreen" cx="68" cy="-42" rx="42.49" ry="18"/>
<text text-anchor="middle" x="68" y="-38.3" font-family="Times,serif" font-size="14.00">libE.so</text>
</g>
<!-- exe&#45;&gt;libe -->
<g id="edge3" class="edge">
<title>exe&#45;&gt;libe</title>
<path fill="none" stroke="green" d="M120.46,-170.9C121.52,-150.3 121.08,-115.09 109,-88 105.35,-79.81 99.62,-72.11 93.59,-65.47"/>
<polygon fill="green" stroke="green" points="95.97,-62.9 86.47,-58.2 90.96,-67.8 95.97,-62.9"/>
</g>
<!-- libc -->
<g id="node4" class="node">
<title>libc</title>
<ellipse fill="lightgreen" stroke="lightgreen" cx="277" cy="-42" rx="42.49" ry="18"/>
<text text-anchor="middle" x="277" y="-38.3" font-family="Times,serif" font-size="14.00">libC.so</text>
</g>
<!-- liba&#45;&gt;libc -->
<g id="edge4" class="edge">
<title>liba&#45;&gt;libc</title>
<path fill="none" stroke="green" d="M200.57,-98.15C214.46,-88.13 232.99,-74.76 248.32,-63.7"/>
<polygon fill="green" stroke="green" points="250.4,-66.51 256.46,-57.82 246.3,-60.84 250.4,-66.51"/>
</g>
<!-- libd -->
<g id="node5" class="node">
<title>libd</title>
<ellipse fill="lightgreen" stroke="lightgreen" cx="175" cy="-42" rx="42.49" ry="18"/>
<text text-anchor="middle" x="175" y="-38.3" font-family="Times,serif" font-size="14.00">libD.so</text>
</g>
<!-- liba&#45;&gt;libd -->
<g id="edge5" class="edge">
<title>liba&#45;&gt;libd</title>
<path fill="none" stroke="green" d="M178.76,-95.7C178.21,-87.98 177.55,-78.71 176.94,-70.11"/>
<polygon fill="green" stroke="green" points="180.43,-69.83 176.22,-60.1 173.44,-70.33 180.43,-69.83"/>
</g>
<!-- libb&#45;&gt;libe -->
<g id="edge6" class="edge">
<title>libb&#45;&gt;libe</title>
<path fill="none" stroke="green" d="M60.47,-95.7C61.57,-87.98 62.9,-78.71 64.13,-70.11"/>
<polygon fill="green" stroke="green" points="67.61,-70.5 65.56,-60.1 60.68,-69.51 67.61,-70.5"/>
</g>
<!-- libf -->
<g id="node7" class="node">
<title>libf</title>
<ellipse fill="lightgreen" stroke="lightgreen" cx="335" cy="-189" rx="43.59" ry="18"/>
<text text-anchor="middle" x="335" y="-185.3" font-family="bold" font-size="14.00">libF.so</text>
</g>
<!-- libg -->
<g id="node8" class="node">
<title>libg</title>
<ellipse fill="lightgreen" stroke="lightgreen" cx="282" cy="-114" rx="42.49" ry="18"/>
<text text-anchor="middle" x="282" y="-110.3" font-family="Times,serif" font-size="14.00">libG.so</text>
</g>
<!-- libf&#45;&gt;libg -->
<g id="edge7" class="edge">
<title>libf&#45;&gt;libg</title>
<path fill="none" stroke="green" d="M322.97,-171.44C316.2,-162.1 307.6,-150.26 300.03,-139.84"/>
<polygon fill="green" stroke="green" points="302.69,-137.54 293.98,-131.5 297.02,-141.65 302.69,-137.54"/>
</g>
<!-- libh -->
<g id="node9" class="node">
<title>libh</title>
<ellipse fill="lightgreen" stroke="lightgreen" cx="386" cy="-114" rx="43.59" ry="18"/>
<text text-anchor="middle" x="386" y="-110.3" font-family="Times,serif" font-size="14.00">libH.so</text>
</g>
<!-- libf&#45;&gt;libh -->
<g id="edge8" class="edge">
<title>libf&#45;&gt;libh</title>
<path fill="none" stroke="green" d="M346.57,-171.44C353.09,-162.1 361.37,-150.26 368.65,-139.84"/>
<polygon fill="green" stroke="green" points="371.62,-141.7 374.47,-131.5 365.88,-137.69 371.62,-141.7"/>
</g>
<!-- libk -->
<g id="node10" class="node">
<title>libk</title>
<ellipse fill="lightgray" stroke="lightgray" cx="556" cy="-114" rx="46.29" ry="18"/>
<text text-anchor="middle" x="556" y="-110.3" font-family="bold" font-size="14.00">libK.so</text>
</g>
<!-- libl -->
<g id="node11" class="node">
<title>libl</title>
<ellipse fill="lightgray" stroke="lightgray" cx="558" cy="-42" rx="41.69" ry="18"/>
<text text-anchor="middle" x="558" y="-38.3" font-family="Times,serif" font-size="14.00">libL.so</text>
</g>
<!-- libk&#45;&gt;libl -->
<g id="edge12" class="edge">
<title>libk&#45;&gt;libl</title>
<path fill="none" stroke="gray" d="M556.49,-95.7C556.71,-87.98 556.98,-78.71 557.23,-70.11"/>
<polygon fill="gray" stroke="gray" points="560.72,-70.2 557.51,-60.1 553.73,-70 560.72,-70.2"/>
</g>
<!-- libi -->
<g id="node12" class="node">
<title>libi</title>
<ellipse fill="lightgray" stroke="lightgray" cx="676" cy="-189" rx="42.49" ry="18"/>
<text text-anchor="middle" x="676" y="-185.3" font-family="bold" font-size="14.00">libI.so</text>
</g>
<!-- libi&#45;&gt;libk -->
<g id="edge10" class="edge">
<title>libi&#45;&gt;libk</title>
<path fill="none" stroke="gray" d="M646.88,-175.78C638.67,-172 629.84,-167.61 622,-163 608.73,-155.2 594.84,-145.38 583.24,-136.65"/>
<polygon fill="gray" stroke="gray" points="585.31,-133.83 575.24,-130.54 581.06,-139.39 585.31,-133.83"/>
</g>
<!-- libi&#45;&gt;libl -->
<g id="edge11" class="edge">
<title>libi&#45;&gt;libl</title>
<path fill="none" stroke="gray" d="M667,-171.04C655.53,-150.27 634.39,-114.58 611,-88 603.57,-79.55 594.52,-71.29 586.02,-64.2"/>
<polygon fill="gray" stroke="gray" points="588.08,-61.37 578.11,-57.79 583.68,-66.81 588.08,-61.37"/>
</g>
<!-- libj -->
<g id="node13" class="node">
<title>libj</title>
<ellipse fill="lightgray" stroke="lightgray" cx="676" cy="-42" rx="38.19" ry="18"/>
<text text-anchor="middle" x="676" y="-38.3" font-family="Times,serif" font-size="14.00">libJ.so</text>
</g>
<!-- libi&#45;&gt;libj -->
<g id="edge9" class="edge">
<title>libi&#45;&gt;libj</title>
<path fill="none" stroke="gray" d="M676,-170.8C676,-145.94 676,-99.74 676,-70.23"/>
<polygon fill="gray" stroke="gray" points="679.5,-70.18 676,-60.18 672.5,-70.18 679.5,-70.18"/>
</g>
</g>
</svg>
